<svg width="1200" height="630" xmlns="http://www.w3.org/2000/svg">
  <defs>
    <linearGradient id="bg" x1="0%" y1="0%" x2="100%" y2="100%">
      <stop offset="0%" style="stop-color:#1a1a1a;stop-opacity:1" />
      <stop offset="100%" style="stop-color:#2d2d2d;stop-opacity:1" />
    </linearGradient>
  </defs>
  
  <!-- Background -->
  <rect width="1200" height="630" fill="url(#bg)"/>
  
  <!-- GitHub Icon -->
  <g transform="translate(500, 180)">
    <path fill="#ffffff" d="M100 0C44.771 0 0 44.771 0 100c0 44.183 28.653 81.653 68.391 94.903 5.003.919 6.837-2.171 6.837-4.819 0-2.377-.087-10.274-.132-18.658-27.819 6.046-33.684-11.804-33.684-11.804-4.552-11.564-11.111-14.644-11.111-14.644-9.084-6.212.687-6.087.687-6.087 10.047.707 15.336 10.313 15.336 10.313 8.929 15.296 23.426 10.879 29.126 8.316.906-6.467 3.494-10.879 6.354-13.382-22.231-2.528-45.612-11.116-45.612-49.452 0-10.924 3.903-19.854 10.313-26.854-1.034-2.527-4.469-12.706 0.981-26.491 0 0 8.408-2.691 27.527 10.257 7.984-2.221 16.544-3.331 25.047-3.371 8.503.04 17.063 1.15 25.047 3.371 19.119-12.948 27.527-10.257 27.527-10.257 5.45 13.785 2.015 23.964.981 26.491 6.41 7 10.313 15.93 10.313 26.854 0 38.432-23.405 46.899-45.712 49.379 3.595 3.096 6.799 9.208 6.799 18.555 0 13.382-.119 24.161-.119 27.449 0 2.672 1.806 5.786 6.861 4.811C171.371 181.629 200 144.171 200 100 200 44.771 155.229 0 100 0z"/>
  </g>
  
  <!-- Title -->
  <text x="600" y="420" font-family="'DM Sans', -apple-system, system-ui, sans-serif" font-size="56" font-weight="600" fill="#ffffff" text-anchor="middle">
    Pytest Autofocus
  </text>
  
  <!-- Description -->
  <text x="600" y="475" font-family="'DM Sans', -apple-system, system-ui, sans-serif" font-size="24" fill="#b0b0b0" text-anchor="middle">
    A pytest plugin intended to be used with pytest-watcher that focuses tests
  </text>
  <text x="600" y="510" font-family="'DM Sans', -apple-system, system-ui, sans-serif" font-size="24" fill="#b0b0b0" text-anchor="middle">
    by only adding a decorator. Never leave the editor.
  </text>
  <text x="600" y="545" font-family="'DM Sans', -apple-system, system-ui, sans-serif" font-size="24" fill="#b0b0b0" text-anchor="middle">
    Fast, focused feedback.
  </text>
</svg>

